# xmcd CD database file
# Copyright (C) 1997 Ti Kan
# 
# Track frame offsets:
#     150
#     8365
#     17620
#     35575
#     52308
#     63985
#     78400
#     91838
#     107888
#     120400
#     134995
#     153353
#     175033
#     190875
#     203350
#     214463
#     237965
#     249268
#     272885
#     290550
# 
# Disc length: 4028 seconds
# 
# Revision: 1
# Processed by: cddbd v1.4b41PL1 Copyright (c) Steve Scherf et al.
# Submitted via: DiscPlay 4.0.4
# 
DISCID=170fba14
DTITLE=Jimmy Hendrix - The Psychedelic Voodoo Child
DYEAR=1900
DGENRE=
TTITLE0=Fool For You Baby
TTITLE1=Happy Birthday
TTITLE2=Don't Accuse Me
TTITLE3=Hornet's Nest
TTITLE4=Flashing
TTITLE5=Odd Ball
TTITLE6=Strange Things
TTITLE7=Welcome Home
TTITLE8=Day Tripper
TTITLE9=Simon Says
TTITLE10=Good Times
TTITLE11=Voices
TTITLE12=Soul Food
TTITLE13=Voice In The WInd
TTITLE14=She's So Fine
TTITLE15=Hush Now
TTITLE16=No Business
TTITLE17=Lov, Love
TTITLE18=Bring My Baby Back
TTITLE19=Psycho
EXTD=
EXTT0=
EXTT1=
EXTT2=
EXTT3=
EXTT4=
EXTT5=
EXTT6=
EXTT7=
EXTT8=
EXTT9=
EXTT10=
EXTT11=
EXTT12=
EXTT13=
EXTT14=
EXTT15=
EXTT16=
EXTT17=
EXTT18=
EXTT19=
PLAYORDER=
